<?xml version="1.0" encoding="utf-8" standalone="no"?>
<!DOCTYPE svg PUBLIC "-//W3C//DTD SVG 1.1//EN"
  "http://www.w3.org/Graphics/SVG/1.1/DTD/svg11.dtd">
<!-- Created with matplotlib (https://matplotlib.org/) -->
<svg height="262.19625pt" version="1.1" viewBox="0 0 376.577424 262.19625" width="376.577424pt" xmlns="http://www.w3.org/2000/svg" xmlns:xlink="http://www.w3.org/1999/xlink">
 <defs>
  <style type="text/css">
*{stroke-linecap:butt;stroke-linejoin:round;}
  </style>
 </defs>
 <g id="figure_1">
  <g id="patch_1">
   <path d="M 0 262.19625 
L 376.577424 262.19625 
L 376.577424 0 
L 0 0 
z
" style="fill:#ffffff;"/>
  </g>
  <g id="axes_1">
   <g id="patch_2">
    <path d="M 20.878125 224.64 
L 355.678125 224.64 
L 355.678125 7.2 
L 20.878125 7.2 
z
" style="fill:#ffffff;"/>
   </g>
   <g id="matplotlib.axis_1">
    <g id="xtick_1">
     <g id="text_1">
      <!-- 0 -->
      <defs>
       <path d="M 31.78125 66.40625 
Q 24.171875 66.40625 20.328125 58.90625 
Q 16.5 51.421875 16.5 36.375 
Q 16.5 21.390625 20.328125 13.890625 
Q 24.171875 6.390625 31.78125 6.390625 
Q 39.453125 6.390625 43.28125 13.890625 
Q 47.125 21.390625 47.125 36.375 
Q 47.125 51.421875 43.28125 58.90625 
Q 39.453125 66.40625 31.78125 66.40625 
z
M 31.78125 74.21875 
Q 44.046875 74.21875 50.515625 64.515625 
Q 56.984375 54.828125 56.984375 36.375 
Q 56.984375 17.96875 50.515625 8.265625 
Q 44.046875 -1.421875 31.78125 -1.421875 
Q 19.53125 -1.421875 13.0625 8.265625 
Q 6.59375 17.96875 6.59375 36.375 
Q 6.59375 54.828125 13.0625 64.515625 
Q 19.53125 74.21875 31.78125 74.21875 
z
" id="DejaVuSans-48"/>
      </defs>
      <g style="fill:#262626;" transform="translate(29.223914 239.238437)scale(0.1 -0.1)">
       <use xlink:href="#DejaVuSans-48"/>
      </g>
     </g>
    </g>
    <g id="xtick_2">
     <g id="text_2">
      <!-- 2500 -->
      <defs>
       <path d="M 19.1875 8.296875 
L 53.609375 8.296875 
L 53.609375 0 
L 7.328125 0 
L 7.328125 8.296875 
Q 12.9375 14.109375 22.625 23.890625 
Q 32.328125 33.6875 34.8125 36.53125 
Q 39.546875 41.84375 41.421875 45.53125 
Q 43.3125 49.21875 43.3125 52.78125 
Q 43.3125 58.59375 39.234375 62.25 
Q 35.15625 65.921875 28.609375 65.921875 
Q 23.96875 65.921875 18.8125 64.3125 
Q 13.671875 62.703125 7.8125 59.421875 
L 7.8125 69.390625 
Q 13.765625 71.78125 18.9375 73 
Q 24.125 74.21875 28.421875 74.21875 
Q 39.75 74.21875 46.484375 68.546875 
Q 53.21875 62.890625 53.21875 53.421875 
Q 53.21875 48.921875 51.53125 44.890625 
Q 49.859375 40.875 45.40625 35.40625 
Q 44.1875 33.984375 37.640625 27.21875 
Q 31.109375 20.453125 19.1875 8.296875 
z
" id="DejaVuSans-50"/>
       <path d="M 10.796875 72.90625 
L 49.515625 72.90625 
L 49.515625 64.59375 
L 19.828125 64.59375 
L 19.828125 46.734375 
Q 21.96875 47.46875 24.109375 47.828125 
Q 26.265625 48.1875 28.421875 48.1875 
Q 40.625 48.1875 47.75 41.5 
Q 54.890625 34.8125 54.890625 23.390625 
Q 54.890625 11.625 47.5625 5.09375 
Q 40.234375 -1.421875 26.90625 -1.421875 
Q 22.3125 -1.421875 17.546875 -0.640625 
Q 12.796875 0.140625 7.71875 1.703125 
L 7.71875 11.625 
Q 12.109375 9.234375 16.796875 8.0625 
Q 21.484375 6.890625 26.703125 6.890625 
Q 35.15625 6.890625 40.078125 11.328125 
Q 45.015625 15.765625 45.015625 23.390625 
Q 45.015625 31 40.078125 35.4375 
Q 35.15625 39.890625 26.703125 39.890625 
Q 22.75 39.890625 18.8125 39.015625 
Q 14.890625 38.140625 10.796875 36.28125 
z
" id="DejaVuSans-53"/>
      </defs>
      <g style="fill:#262626;" transform="translate(65.546737 239.238437)scale(0.1 -0.1)">
       <use xlink:href="#DejaVuSans-50"/>
       <use x="63.623047" xlink:href="#DejaVuSans-53"/>
       <use x="127.246094" xlink:href="#DejaVuSans-48"/>
       <use x="190.869141" xlink:href="#DejaVuSans-48"/>
      </g>
     </g>
    </g>
    <g id="xtick_3">
     <g id="text_3">
      <!-- 5000 -->
      <g style="fill:#262626;" transform="translate(111.41331 239.238437)scale(0.1 -0.1)">
       <use xlink:href="#DejaVuSans-53"/>
       <use x="63.623047" xlink:href="#DejaVuSans-48"/>
       <use x="127.246094" xlink:href="#DejaVuSans-48"/>
       <use x="190.869141" xlink:href="#DejaVuSans-48"/>
      </g>
     </g>
    </g>
    <g id="xtick_4">
     <g id="text_4">
      <!-- 7500 -->
      <defs>
       <path d="M 8.203125 72.90625 
L 55.078125 72.90625 
L 55.078125 68.703125 
L 28.609375 0 
L 18.3125 0 
L 43.21875 64.59375 
L 8.203125 64.59375 
z
" id="DejaVuSans-55"/>
      </defs>
      <g style="fill:#262626;" transform="translate(157.279882 239.238437)scale(0.1 -0.1)">
       <use xlink:href="#DejaVuSans-55"/>
       <use x="63.623047" xlink:href="#DejaVuSans-53"/>
       <use x="127.246094" xlink:href="#DejaVuSans-48"/>
       <use x="190.869141" xlink:href="#DejaVuSans-48"/>
      </g>
     </g>
    </g>
    <g id="xtick_5">
     <g id="text_5">
      <!-- 10000 -->
      <defs>
       <path d="M 12.40625 8.296875 
L 28.515625 8.296875 
L 28.515625 63.921875 
L 10.984375 60.40625 
L 10.984375 69.390625 
L 28.421875 72.90625 
L 38.28125 72.90625 
L 38.28125 8.296875 
L 54.390625 8.296875 
L 54.390625 0 
L 12.40625 0 
z
" id="DejaVuSans-49"/>
      </defs>
      <g style="fill:#262626;" transform="translate(199.965205 239.238437)scale(0.1 -0.1)">
       <use xlink:href="#DejaVuSans-49"/>
       <use x="63.623047" xlink:href="#DejaVuSans-48"/>
       <use x="127.246094" xlink:href="#DejaVuSans-48"/>
       <use x="190.869141" xlink:href="#DejaVuSans-48"/>
       <use x="254.492188" xlink:href="#DejaVuSans-48"/>
      </g>
     </g>
    </g>
    <g id="xtick_6">
     <g id="text_6">
      <!-- 12500 -->
      <g style="fill:#262626;" transform="translate(245.831778 239.238437)scale(0.1 -0.1)">
       <use xlink:href="#DejaVuSans-49"/>
       <use x="63.623047" xlink:href="#DejaVuSans-50"/>
       <use x="127.246094" xlink:href="#DejaVuSans-53"/>
       <use x="190.869141" xlink:href="#DejaVuSans-48"/>
       <use x="254.492188" xlink:href="#DejaVuSans-48"/>
      </g>
     </g>
    </g>
    <g id="xtick_7">
     <g id="text_7">
      <!-- 15000 -->
      <g style="fill:#262626;" transform="translate(291.698351 239.238437)scale(0.1 -0.1)">
       <use xlink:href="#DejaVuSans-49"/>
       <use x="63.623047" xlink:href="#DejaVuSans-53"/>
       <use x="127.246094" xlink:href="#DejaVuSans-48"/>
       <use x="190.869141" xlink:href="#DejaVuSans-48"/>
       <use x="254.492188" xlink:href="#DejaVuSans-48"/>
      </g>
     </g>
    </g>
    <g id="xtick_8">
     <g id="text_8">
      <!-- 17500 -->
      <g style="fill:#262626;" transform="translate(337.564924 239.238437)scale(0.1 -0.1)">
       <use xlink:href="#DejaVuSans-49"/>
       <use x="63.623047" xlink:href="#DejaVuSans-55"/>
       <use x="127.246094" xlink:href="#DejaVuSans-53"/>
       <use x="190.869141" xlink:href="#DejaVuSans-48"/>
       <use x="254.492188" xlink:href="#DejaVuSans-48"/>
      </g>
     </g>
    </g>
    <g id="text_9">
     <!-- UMIs -->
     <defs>
      <path d="M 8.6875 72.90625 
L 18.609375 72.90625 
L 18.609375 28.609375 
Q 18.609375 16.890625 22.84375 11.734375 
Q 27.09375 6.59375 36.625 6.59375 
Q 46.09375 6.59375 50.34375 11.734375 
Q 54.59375 16.890625 54.59375 28.609375 
L 54.59375 72.90625 
L 64.5 72.90625 
L 64.5 27.390625 
Q 64.5 13.140625 57.4375 5.859375 
Q 50.390625 -1.421875 36.625 -1.421875 
Q 22.796875 -1.421875 15.734375 5.859375 
Q 8.6875 13.140625 8.6875 27.390625 
z
" id="DejaVuSans-85"/>
      <path d="M 9.8125 72.90625 
L 24.515625 72.90625 
L 43.109375 23.296875 
L 61.8125 72.90625 
L 76.515625 72.90625 
L 76.515625 0 
L 66.890625 0 
L 66.890625 64.015625 
L 48.09375 14.015625 
L 38.1875 14.015625 
L 19.390625 64.015625 
L 19.390625 0 
L 9.8125 0 
z
" id="DejaVuSans-77"/>
      <path d="M 9.8125 72.90625 
L 19.671875 72.90625 
L 19.671875 0 
L 9.8125 0 
z
" id="DejaVuSans-73"/>
      <path d="M 44.28125 53.078125 
L 44.28125 44.578125 
Q 40.484375 46.53125 36.375 47.5 
Q 32.28125 48.484375 27.875 48.484375 
Q 21.1875 48.484375 17.84375 46.4375 
Q 14.5 44.390625 14.5 40.28125 
Q 14.5 37.15625 16.890625 35.375 
Q 19.28125 33.59375 26.515625 31.984375 
L 29.59375 31.296875 
Q 39.15625 29.25 43.1875 25.515625 
Q 47.21875 21.78125 47.21875 15.09375 
Q 47.21875 7.46875 41.1875 3.015625 
Q 35.15625 -1.421875 24.609375 -1.421875 
Q 20.21875 -1.421875 15.453125 -0.5625 
Q 10.6875 0.296875 5.421875 2 
L 5.421875 11.28125 
Q 10.40625 8.6875 15.234375 7.390625 
Q 20.0625 6.109375 24.8125 6.109375 
Q 31.15625 6.109375 34.5625 8.28125 
Q 37.984375 10.453125 37.984375 14.40625 
Q 37.984375 18.0625 35.515625 20.015625 
Q 33.0625 21.96875 24.703125 23.78125 
L 21.578125 24.515625 
Q 13.234375 26.265625 9.515625 29.90625 
Q 5.8125 33.546875 5.8125 39.890625 
Q 5.8125 47.609375 11.28125 51.796875 
Q 16.75 56 26.8125 56 
Q 31.78125 56 36.171875 55.265625 
Q 40.578125 54.546875 44.28125 53.078125 
z
" id="DejaVuSans-115"/>
     </defs>
     <g style="fill:#262626;" transform="translate(176.225 252.916562)scale(0.1 -0.1)">
      <use xlink:href="#DejaVuSans-85"/>
      <use x="73.193359" xlink:href="#DejaVuSans-77"/>
      <use x="159.472656" xlink:href="#DejaVuSans-73"/>
      <use x="188.964844" xlink:href="#DejaVuSans-115"/>
     </g>
    </g>
   </g>
   <g id="matplotlib.axis_2">
    <g id="text_10">
     <!-- Density -->
     <defs>
      <path d="M 19.671875 64.796875 
L 19.671875 8.109375 
L 31.59375 8.109375 
Q 46.6875 8.109375 53.6875 14.9375 
Q 60.6875 21.78125 60.6875 36.53125 
Q 60.6875 51.171875 53.6875 57.984375 
Q 46.6875 64.796875 31.59375 64.796875 
z
M 9.8125 72.90625 
L 30.078125 72.90625 
Q 51.265625 72.90625 61.171875 64.09375 
Q 71.09375 55.28125 71.09375 36.53125 
Q 71.09375 17.671875 61.125 8.828125 
Q 51.171875 0 30.078125 0 
L 9.8125 0 
z
" id="DejaVuSans-68"/>
      <path d="M 56.203125 29.59375 
L 56.203125 25.203125 
L 14.890625 25.203125 
Q 15.484375 15.921875 20.484375 11.0625 
Q 25.484375 6.203125 34.421875 6.203125 
Q 39.59375 6.203125 44.453125 7.46875 
Q 49.3125 8.734375 54.109375 11.28125 
L 54.109375 2.78125 
Q 49.265625 0.734375 44.1875 -0.34375 
Q 39.109375 -1.421875 33.890625 -1.421875 
Q 20.796875 -1.421875 13.15625 6.1875 
Q 5.515625 13.8125 5.515625 26.8125 
Q 5.515625 40.234375 12.765625 48.109375 
Q 20.015625 56 32.328125 56 
Q 43.359375 56 49.78125 48.890625 
Q 56.203125 41.796875 56.203125 29.59375 
z
M 47.21875 32.234375 
Q 47.125 39.59375 43.09375 43.984375 
Q 39.0625 48.390625 32.421875 48.390625 
Q 24.90625 48.390625 20.390625 44.140625 
Q 15.875 39.890625 15.1875 32.171875 
z
" id="DejaVuSans-101"/>
      <path d="M 54.890625 33.015625 
L 54.890625 0 
L 45.90625 0 
L 45.90625 32.71875 
Q 45.90625 40.484375 42.875 44.328125 
Q 39.84375 48.1875 33.796875 48.1875 
Q 26.515625 48.1875 22.3125 43.546875 
Q 18.109375 38.921875 18.109375 30.90625 
L 18.109375 0 
L 9.078125 0 
L 9.078125 54.6875 
L 18.109375 54.6875 
L 18.109375 46.1875 
Q 21.34375 51.125 25.703125 53.5625 
Q 30.078125 56 35.796875 56 
Q 45.21875 56 50.046875 50.171875 
Q 54.890625 44.34375 54.890625 33.015625 
z
" id="DejaVuSans-110"/>
      <path d="M 9.421875 54.6875 
L 18.40625 54.6875 
L 18.40625 0 
L 9.421875 0 
z
M 9.421875 75.984375 
L 18.40625 75.984375 
L 18.40625 64.59375 
L 9.421875 64.59375 
z
" id="DejaVuSans-105"/>
      <path d="M 18.3125 70.21875 
L 18.3125 54.6875 
L 36.8125 54.6875 
L 36.8125 47.703125 
L 18.3125 47.703125 
L 18.3125 18.015625 
Q 18.3125 11.328125 20.140625 9.421875 
Q 21.96875 7.515625 27.59375 7.515625 
L 36.8125 7.515625 
L 36.8125 0 
L 27.59375 0 
Q 17.1875 0 13.234375 3.875 
Q 9.28125 7.765625 9.28125 18.015625 
L 9.28125 47.703125 
L 2.6875 47.703125 
L 2.6875 54.6875 
L 9.28125 54.6875 
L 9.28125 70.21875 
z
" id="DejaVuSans-116"/>
      <path d="M 32.171875 -5.078125 
Q 28.375 -14.84375 24.75 -17.8125 
Q 21.140625 -20.796875 15.09375 -20.796875 
L 7.90625 -20.796875 
L 7.90625 -13.28125 
L 13.1875 -13.28125 
Q 16.890625 -13.28125 18.9375 -11.515625 
Q 21 -9.765625 23.484375 -3.21875 
L 25.09375 0.875 
L 2.984375 54.6875 
L 12.5 54.6875 
L 29.59375 11.921875 
L 46.6875 54.6875 
L 56.203125 54.6875 
z
" id="DejaVuSans-121"/>
     </defs>
     <g style="fill:#262626;" transform="translate(14.798438 134.928594)rotate(-90)scale(0.1 -0.1)">
      <use xlink:href="#DejaVuSans-68"/>
      <use x="77.001953" xlink:href="#DejaVuSans-101"/>
      <use x="138.525391" xlink:href="#DejaVuSans-110"/>
      <use x="201.904297" xlink:href="#DejaVuSans-115"/>
      <use x="254.003906" xlink:href="#DejaVuSans-105"/>
      <use x="281.787109" xlink:href="#DejaVuSans-116"/>
      <use x="320.996094" xlink:href="#DejaVuSans-121"/>
     </g>
    </g>
   </g>
   <g id="patch_3">
    <path clip-path="url(#pcf9df0cdc3)" d="M 38.532938 224.64 
L 44.522746 224.64 
L 44.522746 198.493263 
L 38.532938 198.493263 
z
" style="fill:#1f77b4;opacity:0.4;stroke:#ffffff;stroke-linejoin:miter;"/>
   </g>
   <g id="patch_4">
    <path clip-path="url(#pcf9df0cdc3)" d="M 44.522746 224.64 
L 50.512553 224.64 
L 50.512553 136.18553 
L 44.522746 136.18553 
z
" style="fill:#1f77b4;opacity:0.4;stroke:#ffffff;stroke-linejoin:miter;"/>
   </g>
   <g id="patch_5">
    <path clip-path="url(#pcf9df0cdc3)" d="M 50.512553 224.64 
L 56.50236 224.64 
L 56.50236 33.853746 
L 50.512553 33.853746 
z
" style="fill:#1f77b4;opacity:0.4;stroke:#ffffff;stroke-linejoin:miter;"/>
   </g>
   <g id="patch_6">
    <path clip-path="url(#pcf9df0cdc3)" d="M 56.50236 224.64 
L 62.492168 224.64 
L 62.492168 52.245515 
L 56.50236 52.245515 
z
" style="fill:#1f77b4;opacity:0.4;stroke:#ffffff;stroke-linejoin:miter;"/>
   </g>
   <g id="patch_7">
    <path clip-path="url(#pcf9df0cdc3)" d="M 62.492168 224.64 
L 68.481975 224.64 
L 68.481975 138.428328 
L 62.492168 138.428328 
z
" style="fill:#1f77b4;opacity:0.4;stroke:#ffffff;stroke-linejoin:miter;"/>
   </g>
   <g id="patch_8">
    <path clip-path="url(#pcf9df0cdc3)" d="M 68.481975 224.64 
L 74.471783 224.64 
L 74.471783 188.244005 
L 68.481975 188.244005 
z
" style="fill:#1f77b4;opacity:0.4;stroke:#ffffff;stroke-linejoin:miter;"/>
   </g>
   <g id="patch_9">
    <path clip-path="url(#pcf9df0cdc3)" d="M 74.471783 224.64 
L 80.46159 224.64 
L 80.46159 204.463063 
L 74.471783 204.463063 
z
" style="fill:#1f77b4;opacity:0.4;stroke:#ffffff;stroke-linejoin:miter;"/>
   </g>
   <g id="patch_10">
    <path clip-path="url(#pcf9df0cdc3)" d="M 80.46159 224.64 
L 86.451398 224.64 
L 86.451398 211.673824 
L 80.46159 211.673824 
z
" style="fill:#1f77b4;opacity:0.4;stroke:#ffffff;stroke-linejoin:miter;"/>
   </g>
   <g id="patch_11">
    <path clip-path="url(#pcf9df0cdc3)" d="M 86.451398 224.64 
L 92.441205 224.64 
L 92.441205 216.579945 
L 86.451398 216.579945 
z
" style="fill:#1f77b4;opacity:0.4;stroke:#ffffff;stroke-linejoin:miter;"/>
   </g>
   <g id="patch_12">
    <path clip-path="url(#pcf9df0cdc3)" d="M 92.441205 224.64 
L 98.431013 224.64 
L 98.431013 219.729757 
L 92.441205 219.729757 
z
" style="fill:#1f77b4;opacity:0.4;stroke:#ffffff;stroke-linejoin:miter;"/>
   </g>
   <g id="patch_13">
    <path clip-path="url(#pcf9df0cdc3)" d="M 98.431013 224.64 
L 104.42082 224.64 
L 104.42082 221.55203 
L 98.431013 221.55203 
z
" style="fill:#1f77b4;opacity:0.4;stroke:#ffffff;stroke-linejoin:miter;"/>
   </g>
   <g id="patch_14">
    <path clip-path="url(#pcf9df0cdc3)" d="M 104.42082 224.64 
L 110.410628 224.64 
L 110.410628 221.968432 
L 104.42082 221.968432 
z
" style="fill:#1f77b4;opacity:0.4;stroke:#ffffff;stroke-linejoin:miter;"/>
   </g>
   <g id="patch_15">
    <path clip-path="url(#pcf9df0cdc3)" d="M 110.410628 224.64 
L 116.400435 224.64 
L 116.400435 221.80352 
L 110.410628 221.80352 
z
" style="fill:#1f77b4;opacity:0.4;stroke:#ffffff;stroke-linejoin:miter;"/>
   </g>
   <g id="patch_16">
    <path clip-path="url(#pcf9df0cdc3)" d="M 116.400435 224.64 
L 122.390243 224.64 
L 122.390243 221.267557 
L 116.400435 221.267557 
z
" style="fill:#1f77b4;opacity:0.4;stroke:#ffffff;stroke-linejoin:miter;"/>
   </g>
   <g id="patch_17">
    <path clip-path="url(#pcf9df0cdc3)" d="M 122.390243 224.64 
L 128.38005 224.64 
L 128.38005 221.453083 
L 122.390243 221.453083 
z
" style="fill:#1f77b4;opacity:0.4;stroke:#ffffff;stroke-linejoin:miter;"/>
   </g>
   <g id="patch_18">
    <path clip-path="url(#pcf9df0cdc3)" d="M 128.38005 224.64 
L 134.369858 224.64 
L 134.369858 221.766415 
L 128.38005 221.766415 
z
" style="fill:#1f77b4;opacity:0.4;stroke:#ffffff;stroke-linejoin:miter;"/>
   </g>
   <g id="patch_19">
    <path clip-path="url(#pcf9df0cdc3)" d="M 134.369858 224.64 
L 140.359665 224.64 
L 140.359665 222.273518 
L 134.369858 222.273518 
z
" style="fill:#1f77b4;opacity:0.4;stroke:#ffffff;stroke-linejoin:miter;"/>
   </g>
   <g id="patch_20">
    <path clip-path="url(#pcf9df0cdc3)" d="M 140.359665 224.64 
L 146.349473 224.64 
L 146.349473 223.139304 
L 140.359665 223.139304 
z
" style="fill:#1f77b4;opacity:0.4;stroke:#ffffff;stroke-linejoin:miter;"/>
   </g>
   <g id="patch_21">
    <path clip-path="url(#pcf9df0cdc3)" d="M 146.349473 224.64 
L 152.33928 224.64 
L 152.33928 223.613425 
L 146.349473 223.613425 
z
" style="fill:#1f77b4;opacity:0.4;stroke:#ffffff;stroke-linejoin:miter;"/>
   </g>
   <g id="patch_22">
    <path clip-path="url(#pcf9df0cdc3)" d="M 152.33928 224.64 
L 158.329088 224.64 
L 158.329088 223.831933 
L 152.33928 223.831933 
z
" style="fill:#1f77b4;opacity:0.4;stroke:#ffffff;stroke-linejoin:miter;"/>
   </g>
   <g id="patch_23">
    <path clip-path="url(#pcf9df0cdc3)" d="M 158.329088 224.64 
L 164.318895 224.64 
L 164.318895 224.153511 
L 158.329088 224.153511 
z
" style="fill:#1f77b4;opacity:0.4;stroke:#ffffff;stroke-linejoin:miter;"/>
   </g>
   <g id="patch_24">
    <path clip-path="url(#pcf9df0cdc3)" d="M 164.318895 224.64 
L 170.308703 224.64 
L 170.308703 224.207107 
L 164.318895 224.207107 
z
" style="fill:#1f77b4;opacity:0.4;stroke:#ffffff;stroke-linejoin:miter;"/>
   </g>
   <g id="patch_25">
    <path clip-path="url(#pcf9df0cdc3)" d="M 170.308703 224.64 
L 176.29851 224.64 
L 176.29851 224.367896 
L 170.308703 224.367896 
z
" style="fill:#1f77b4;opacity:0.4;stroke:#ffffff;stroke-linejoin:miter;"/>
   </g>
   <g id="patch_26">
    <path clip-path="url(#pcf9df0cdc3)" d="M 176.29851 224.64 
L 182.288318 224.64 
L 182.288318 224.396755 
L 176.29851 224.396755 
z
" style="fill:#1f77b4;opacity:0.4;stroke:#ffffff;stroke-linejoin:miter;"/>
   </g>
   <g id="patch_27">
    <path clip-path="url(#pcf9df0cdc3)" d="M 182.288318 224.64 
L 188.278125 224.64 
L 188.278125 224.450352 
L 182.288318 224.450352 
z
" style="fill:#1f77b4;opacity:0.4;stroke:#ffffff;stroke-linejoin:miter;"/>
   </g>
   <g id="patch_28">
    <path clip-path="url(#pcf9df0cdc3)" d="M 188.278125 224.64 
L 194.267932 224.64 
L 194.267932 224.437983 
L 188.278125 224.437983 
z
" style="fill:#1f77b4;opacity:0.4;stroke:#ffffff;stroke-linejoin:miter;"/>
   </g>
   <g id="patch_29">
    <path clip-path="url(#pcf9df0cdc3)" d="M 194.267932 224.64 
L 200.25774 224.64 
L 200.25774 224.483334 
L 194.267932 224.483334 
z
" style="fill:#1f77b4;opacity:0.4;stroke:#ffffff;stroke-linejoin:miter;"/>
   </g>
   <g id="patch_30">
    <path clip-path="url(#pcf9df0cdc3)" d="M 200.25774 224.64 
L 206.247547 224.64 
L 206.247547 224.528685 
L 200.25774 224.528685 
z
" style="fill:#1f77b4;opacity:0.4;stroke:#ffffff;stroke-linejoin:miter;"/>
   </g>
   <g id="patch_31">
    <path clip-path="url(#pcf9df0cdc3)" d="M 206.247547 224.64 
L 212.237355 224.64 
L 212.237355 224.512193 
L 206.247547 224.512193 
z
" style="fill:#1f77b4;opacity:0.4;stroke:#ffffff;stroke-linejoin:miter;"/>
   </g>
   <g id="patch_32">
    <path clip-path="url(#pcf9df0cdc3)" d="M 212.237355 224.64 
L 218.227162 224.64 
L 218.227162 224.524562 
L 212.237355 224.524562 
z
" style="fill:#1f77b4;opacity:0.4;stroke:#ffffff;stroke-linejoin:miter;"/>
   </g>
   <g id="patch_33">
    <path clip-path="url(#pcf9df0cdc3)" d="M 218.227162 224.64 
L 224.21697 224.64 
L 224.21697 224.582281 
L 218.227162 224.582281 
z
" style="fill:#1f77b4;opacity:0.4;stroke:#ffffff;stroke-linejoin:miter;"/>
   </g>
   <g id="patch_34">
    <path clip-path="url(#pcf9df0cdc3)" d="M 224.21697 224.64 
L 230.206777 224.64 
L 230.206777 224.578158 
L 224.21697 224.578158 
z
" style="fill:#1f77b4;opacity:0.4;stroke:#ffffff;stroke-linejoin:miter;"/>
   </g>
   <g id="patch_35">
    <path clip-path="url(#pcf9df0cdc3)" d="M 230.206777 224.64 
L 236.196585 224.64 
L 236.196585 224.594649 
L 230.206777 224.594649 
z
" style="fill:#1f77b4;opacity:0.4;stroke:#ffffff;stroke-linejoin:miter;"/>
   </g>
   <g id="patch_36">
    <path clip-path="url(#pcf9df0cdc3)" d="M 236.196585 224.64 
L 242.186392 224.64 
L 242.186392 224.602895 
L 236.196585 224.602895 
z
" style="fill:#1f77b4;opacity:0.4;stroke:#ffffff;stroke-linejoin:miter;"/>
   </g>
   <g id="patch_37">
    <path clip-path="url(#pcf9df0cdc3)" d="M 242.186392 224.64 
L 248.1762 224.64 
L 248.1762 224.594649 
L 242.186392 224.594649 
z
" style="fill:#1f77b4;opacity:0.4;stroke:#ffffff;stroke-linejoin:miter;"/>
   </g>
   <g id="patch_38">
    <path clip-path="url(#pcf9df0cdc3)" d="M 248.1762 224.64 
L 254.166007 224.64 
L 254.166007 224.598772 
L 248.1762 224.598772 
z
" style="fill:#1f77b4;opacity:0.4;stroke:#ffffff;stroke-linejoin:miter;"/>
   </g>
   <g id="patch_39">
    <path clip-path="url(#pcf9df0cdc3)" d="M 254.166007 224.64 
L 260.155815 224.64 
L 260.155815 224.602895 
L 254.166007 224.602895 
z
" style="fill:#1f77b4;opacity:0.4;stroke:#ffffff;stroke-linejoin:miter;"/>
   </g>
   <g id="patch_40">
    <path clip-path="url(#pcf9df0cdc3)" d="M 260.155815 224.64 
L 266.145622 224.64 
L 266.145622 224.619386 
L 260.155815 224.619386 
z
" style="fill:#1f77b4;opacity:0.4;stroke:#ffffff;stroke-linejoin:miter;"/>
   </g>
   <g id="patch_41">
    <path clip-path="url(#pcf9df0cdc3)" d="M 266.145622 224.64 
L 272.13543 224.64 
L 272.13543 224.627632 
L 266.145622 224.627632 
z
" style="fill:#1f77b4;opacity:0.4;stroke:#ffffff;stroke-linejoin:miter;"/>
   </g>
   <g id="patch_42">
    <path clip-path="url(#pcf9df0cdc3)" d="M 272.13543 224.64 
L 278.125237 224.64 
L 278.125237 224.635877 
L 272.13543 224.635877 
z
" style="fill:#1f77b4;opacity:0.4;stroke:#ffffff;stroke-linejoin:miter;"/>
   </g>
   <g id="patch_43">
    <path clip-path="url(#pcf9df0cdc3)" d="M 278.125237 224.64 
L 284.115045 224.64 
L 284.115045 224.627632 
L 278.125237 224.627632 
z
" style="fill:#1f77b4;opacity:0.4;stroke:#ffffff;stroke-linejoin:miter;"/>
   </g>
   <g id="patch_44">
    <path clip-path="url(#pcf9df0cdc3)" d="M 284.115045 224.64 
L 290.104852 224.64 
L 290.104852 224.635877 
L 284.115045 224.635877 
z
" style="fill:#1f77b4;opacity:0.4;stroke:#ffffff;stroke-linejoin:miter;"/>
   </g>
   <g id="patch_45">
    <path clip-path="url(#pcf9df0cdc3)" d="M 290.104852 224.64 
L 296.09466 224.64 
L 296.09466 224.64 
L 290.104852 224.64 
z
" style="fill:#1f77b4;opacity:0.4;stroke:#ffffff;stroke-linejoin:miter;"/>
   </g>
   <g id="patch_46">
    <path clip-path="url(#pcf9df0cdc3)" d="M 296.09466 224.64 
L 302.084467 224.64 
L 302.084467 224.631754 
L 296.09466 224.631754 
z
" style="fill:#1f77b4;opacity:0.4;stroke:#ffffff;stroke-linejoin:miter;"/>
   </g>
   <g id="patch_47">
    <path clip-path="url(#pcf9df0cdc3)" d="M 302.084467 224.64 
L 308.074275 224.64 
L 308.074275 224.635877 
L 302.084467 224.635877 
z
" style="fill:#1f77b4;opacity:0.4;stroke:#ffffff;stroke-linejoin:miter;"/>
   </g>
   <g id="patch_48">
    <path clip-path="url(#pcf9df0cdc3)" d="M 308.074275 224.64 
L 314.064082 224.64 
L 314.064082 224.64 
L 308.074275 224.64 
z
" style="fill:#1f77b4;opacity:0.4;stroke:#ffffff;stroke-linejoin:miter;"/>
   </g>
   <g id="patch_49">
    <path clip-path="url(#pcf9df0cdc3)" d="M 314.064082 224.64 
L 320.05389 224.64 
L 320.05389 224.64 
L 314.064082 224.64 
z
" style="fill:#1f77b4;opacity:0.4;stroke:#ffffff;stroke-linejoin:miter;"/>
   </g>
   <g id="patch_50">
    <path clip-path="url(#pcf9df0cdc3)" d="M 320.05389 224.64 
L 326.043697 224.64 
L 326.043697 224.635877 
L 320.05389 224.635877 
z
" style="fill:#1f77b4;opacity:0.4;stroke:#ffffff;stroke-linejoin:miter;"/>
   </g>
   <g id="patch_51">
    <path clip-path="url(#pcf9df0cdc3)" d="M 326.043697 224.64 
L 332.033504 224.64 
L 332.033504 224.635877 
L 326.043697 224.635877 
z
" style="fill:#1f77b4;opacity:0.4;stroke:#ffffff;stroke-linejoin:miter;"/>
   </g>
   <g id="patch_52">
    <path clip-path="url(#pcf9df0cdc3)" d="M 332.033504 224.64 
L 338.023312 224.64 
L 338.023312 224.631754 
L 332.033504 224.631754 
z
" style="fill:#1f77b4;opacity:0.4;stroke:#ffffff;stroke-linejoin:miter;"/>
   </g>
   <g id="line2d_1">
    <path clip-path="url(#pcf9df0cdc3)" d="M 36.096307 224.593073 
L 38.492871 224.64 
L 40.889435 211.855628 
L 43.285999 180.247807 
L 45.682563 161.912852 
L 48.079127 131.442685 
L 50.475691 81.330608 
L 52.872255 36.594468 
L 55.268819 17.554286 
L 57.665383 27.389202 
L 60.061947 57.421786 
L 62.458512 96.605269 
L 64.855076 132.310844 
L 67.25164 160.511039 
L 69.648204 178.004169 
L 72.044768 192.38332 
L 74.441332 199.619363 
L 76.837896 203.211876 
L 79.23446 207.622817 
L 81.631024 209.562282 
L 84.027588 212.47549 
L 91.21728 217.932581 
L 93.613844 219.346406 
L 96.010408 219.779839 
L 98.406973 220.651467 
L 103.200101 222.045249 
L 107.993229 221.871436 
L 110.389793 222.227911 
L 112.786357 221.580605 
L 115.182921 221.668959 
L 117.579485 221.276191 
L 119.976049 221.232303 
L 122.372613 221.419201 
L 124.769177 221.413377 
L 127.165741 221.654032 
L 129.562305 221.638017 
L 131.958869 221.874251 
L 134.355434 221.746877 
L 136.751998 222.402728 
L 139.148562 222.416416 
L 141.545126 223.113565 
L 143.94169 223.083967 
L 148.734818 223.646542 
L 153.527946 223.667571 
L 158.321074 224.037026 
L 160.717638 224.180327 
L 163.114202 224.134382 
L 172.700459 224.395867 
L 175.097023 224.348187 
L 179.890151 224.408508 
L 203.855791 224.587596 
L 206.252355 224.478239 
L 208.64892 224.553464 
L 211.045484 224.491115 
L 213.442048 224.577072 
L 215.838612 224.445033 
L 218.235176 224.600866 
L 225.424868 224.550884 
L 227.821432 224.608979 
L 230.217996 224.546148 
L 232.61456 224.64 
L 235.011124 224.565979 
L 242.200816 224.639448 
L 249.390509 224.576734 
L 256.580201 224.631969 
L 263.769893 224.603648 
L 294.925226 224.64 
L 309.30461 224.64 
L 330.873687 224.61181 
L 340.459943 224.629486 
L 340.459943 224.629486 
" style="fill:none;stroke:#1f77b4;stroke-linecap:round;stroke-width:1.5;"/>
   </g>
   <g id="line2d_2">
    <path clip-path="url(#pcf9df0cdc3)" d="M 47.082467 224.64 
L 47.082467 7.2 
" style="fill:none;stroke:#006400;stroke-linecap:round;stroke-width:1.5;"/>
   </g>
   <g id="line2d_3">
    <path clip-path="url(#pcf9df0cdc3)" d="M 179.178197 224.64 
L 179.178197 7.2 
" style="fill:none;stroke:#dc143c;stroke-linecap:round;stroke-width:1.5;"/>
   </g>
   <g id="patch_53">
    <path d="M 20.878125 224.64 
L 20.878125 7.2 
" style="fill:none;stroke:#262626;stroke-linecap:square;stroke-linejoin:miter;stroke-width:0.8;"/>
   </g>
   <g id="patch_54">
    <path d="M 355.678125 224.64 
L 355.678125 7.2 
" style="fill:none;stroke:#262626;stroke-linecap:square;stroke-linejoin:miter;stroke-width:0.8;"/>
   </g>
   <g id="patch_55">
    <path d="M 20.878125 224.64 
L 355.678125 224.64 
" style="fill:none;stroke:#262626;stroke-linecap:square;stroke-linejoin:miter;stroke-width:0.8;"/>
   </g>
   <g id="patch_56">
    <path d="M 20.878125 7.2 
L 355.678125 7.2 
" style="fill:none;stroke:#262626;stroke-linecap:square;stroke-linejoin:miter;stroke-width:0.8;"/>
   </g>
  </g>
 </g>
 <defs>
  <clipPath id="pcf9df0cdc3">
   <rect height="217.44" width="334.8" x="20.878125" y="7.2"/>
  </clipPath>
 </defs>
</svg>
