<?xml version="1.0" encoding="utf-8" standalone="no"?>
<!DOCTYPE svg PUBLIC "-//W3C//DTD SVG 1.1//EN"
  "http://www.w3.org/Graphics/SVG/1.1/DTD/svg11.dtd">
<svg height="262.19625pt" version="1.1" viewBox="0 0 374.047416 262.19625" width="374.047416pt" xmlns="http://www.w3.org/2000/svg" xmlns:xlink="http://www.w3.org/1999/xlink">
 <metadata>
  <rdf:RDF xmlns:cc="http://creativecommons.org/ns#" xmlns:dc="http://purl.org/dc/elements/1.1/" xmlns:rdf="http://www.w3.org/1999/02/22-rdf-syntax-ns#">
   <cc:Work>
    <dc:type rdf:resource="http://purl.org/dc/dcmitype/StillImage"/>
    <dc:date>2021-12-22T10:25:04.037391</dc:date>
    <dc:format>image/svg+xml</dc:format>
    <dc:creator>
     <cc:Agent>
      <dc:title>Matplotlib v3.4.3, https://matplotlib.org/</dc:title>
     </cc:Agent>
    </dc:creator>
   </cc:Work>
  </rdf:RDF>
 </metadata>
 <defs>
  <style type="text/css">*{stroke-linecap:butt;stroke-linejoin:round;}</style>
 </defs>
 <g id="figure_1">
  <g id="patch_1">
   <path d="M 0 262.19625
L 374.047416 262.19625
L 374.047416 0
L 0 0
z
" style="fill:#ffffff;"/>
  </g>
  <g id="axes_1">
   <g id="patch_2">
    <path d="M 20.878125 224.64
L 355.678125 224.64
L 355.678125 7.2
L 20.878125 7.2
z
" style="fill:#ffffff;"/>
   </g>
   <g id="matplotlib.axis_1">
    <g id="xtick_1">
     <g id="text_1">
      <!-- 0 -->
      <g style="fill:#262626;" transform="translate(31.61118 239.238437)scale(0.1 -0.1)">
       <defs>
        <path d="M 2034 4250
Q 1547 4250 1301 3770
Q 1056 3291 1056 2328
Q 1056 1369 1301 889
Q 1547 409 2034 409
Q 2525 409 2770 889
Q 3016 1369 3016 2328
Q 3016 3291 2770 3770
Q 2525 4250 2034 4250
z
M 2034 4750
Q 2819 4750 3233 4129
Q 3647 3509 3647 2328
Q 3647 1150 3233 529
Q 2819 -91 2034 -91
Q 1250 -91 836 529
Q 422 1150 422 2328
Q 422 3509 836 4129
Q 1250 4750 2034 4750
z
" id="DejaVuSans-30" transform="scale(0.015625)"/>
       </defs>
       <use xlink:href="#DejaVuSans-30"/>
      </g>
     </g>
    </g>
    <g id="xtick_2">
     <g id="text_2">
      <!-- 2500 -->
      <g style="fill:#262626;" transform="translate(67.231536 239.238437)scale(0.1 -0.1)">
       <defs>
        <path d="M 1228 531
L 3431 531
L 3431 0
L 469 0
L 469 531
Q 828 903 1448 1529
Q 2069 2156 2228 2338
Q 2531 2678 2651 2914
Q 2772 3150 2772 3378
Q 2772 3750 2511 3984
Q 2250 4219 1831 4219
Q 1534 4219 1204 4116
Q 875 4013 500 3803
L 500 4441
Q 881 4594 1212 4672
Q 1544 4750 1819 4750
Q 2544 4750 2975 4387
Q 3406 4025 3406 3419
Q 3406 3131 3298 2873
Q 3191 2616 2906 2266
Q 2828 2175 2409 1742
Q 1991 1309 1228 531
z
" id="DejaVuSans-32" transform="scale(0.015625)"/>
        <path d="M 691 4666
L 3169 4666
L 3169 4134
L 1269 4134
L 1269 2991
Q 1406 3038 1543 3061
Q 1681 3084 1819 3084
Q 2600 3084 3056 2656
Q 3513 2228 3513 1497
Q 3513 744 3044 326
Q 2575 -91 1722 -91
Q 1428 -91 1123 -41
Q 819 9 494 109
L 494 744
Q 775 591 1075 516
Q 1375 441 1709 441
Q 2250 441 2565 725
Q 2881 1009 2881 1497
Q 2881 1984 2565 2268
Q 2250 2553 1709 2553
Q 1456 2553 1204 2497
Q 953 2441 691 2322
L 691 4666
z
" id="DejaVuSans-35" transform="scale(0.015625)"/>
       </defs>
       <use xlink:href="#DejaVuSans-32"/>
       <use x="63.623047" xlink:href="#DejaVuSans-35"/>
       <use x="127.246094" xlink:href="#DejaVuSans-30"/>
       <use x="190.869141" xlink:href="#DejaVuSans-30"/>
      </g>
     </g>
    </g>
    <g id="xtick_3">
     <g id="text_3">
      <!-- 5000 -->
      <g style="fill:#262626;" transform="translate(112.395641 239.238437)scale(0.1 -0.1)">
       <use xlink:href="#DejaVuSans-35"/>
       <use x="63.623047" xlink:href="#DejaVuSans-30"/>
       <use x="127.246094" xlink:href="#DejaVuSans-30"/>
       <use x="190.869141" xlink:href="#DejaVuSans-30"/>
      </g>
     </g>
    </g>
    <g id="xtick_4">
     <g id="text_4">
      <!-- 7500 -->
      <g style="fill:#262626;" transform="translate(157.559746 239.238437)scale(0.1 -0.1)">
       <defs>
        <path d="M 525 4666
L 3525 4666
L 3525 4397
L 1831 0
L 1172 0
L 2766 4134
L 525 4134
L 525 4666
z
" id="DejaVuSans-37" transform="scale(0.015625)"/>
       </defs>
       <use xlink:href="#DejaVuSans-37"/>
       <use x="63.623047" xlink:href="#DejaVuSans-35"/>
       <use x="127.246094" xlink:href="#DejaVuSans-30"/>
       <use x="190.869141" xlink:href="#DejaVuSans-30"/>
      </g>
     </g>
    </g>
    <g id="xtick_5">
     <g id="text_5">
      <!-- 10000 -->
      <g style="fill:#262626;" transform="translate(199.542601 239.238437)scale(0.1 -0.1)">
       <defs>
        <path d="M 794 531
L 1825 531
L 1825 4091
L 703 3866
L 703 4441
L 1819 4666
L 2450 4666
L 2450 531
L 3481 531
L 3481 0
L 794 0
L 794 531
z
" id="DejaVuSans-31" transform="scale(0.015625)"/>
       </defs>
       <use xlink:href="#DejaVuSans-31"/>
       <use x="63.623047" xlink:href="#DejaVuSans-30"/>
       <use x="127.246094" xlink:href="#DejaVuSans-30"/>
       <use x="190.869141" xlink:href="#DejaVuSans-30"/>
       <use x="254.492188" xlink:href="#DejaVuSans-30"/>
      </g>
     </g>
    </g>
    <g id="xtick_6">
     <g id="text_6">
      <!-- 12500 -->
      <g style="fill:#262626;" transform="translate(244.706706 239.238437)scale(0.1 -0.1)">
       <use xlink:href="#DejaVuSans-31"/>
       <use x="63.623047" xlink:href="#DejaVuSans-32"/>
       <use x="127.246094" xlink:href="#DejaVuSans-35"/>
       <use x="190.869141" xlink:href="#DejaVuSans-30"/>
       <use x="254.492188" xlink:href="#DejaVuSans-30"/>
      </g>
     </g>
    </g>
    <g id="xtick_7">
     <g id="text_7">
      <!-- 15000 -->
      <g style="fill:#262626;" transform="translate(289.870811 239.238437)scale(0.1 -0.1)">
       <use xlink:href="#DejaVuSans-31"/>
       <use x="63.623047" xlink:href="#DejaVuSans-35"/>
       <use x="127.246094" xlink:href="#DejaVuSans-30"/>
       <use x="190.869141" xlink:href="#DejaVuSans-30"/>
       <use x="254.492188" xlink:href="#DejaVuSans-30"/>
      </g>
     </g>
    </g>
    <g id="xtick_8">
     <g id="text_8">
      <!-- 17500 -->
      <g style="fill:#262626;" transform="translate(335.034916 239.238437)scale(0.1 -0.1)">
       <use xlink:href="#DejaVuSans-31"/>
       <use x="63.623047" xlink:href="#DejaVuSans-37"/>
       <use x="127.246094" xlink:href="#DejaVuSans-35"/>
       <use x="190.869141" xlink:href="#DejaVuSans-30"/>
       <use x="254.492188" xlink:href="#DejaVuSans-30"/>
      </g>
     </g>
    </g>
    <g id="text_9">
     <!-- UMIs -->
     <g style="fill:#262626;" transform="translate(176.225 252.916562)scale(0.1 -0.1)">
      <defs>
       <path d="M 556 4666
L 1191 4666
L 1191 1831
Q 1191 1081 1462 751
Q 1734 422 2344 422
Q 2950 422 3222 751
Q 3494 1081 3494 1831
L 3494 4666
L 4128 4666
L 4128 1753
Q 4128 841 3676 375
Q 3225 -91 2344 -91
Q 1459 -91 1007 375
Q 556 841 556 1753
L 556 4666
z
" id="DejaVuSans-55" transform="scale(0.015625)"/>
       <path d="M 628 4666
L 1569 4666
L 2759 1491
L 3956 4666
L 4897 4666
L 4897 0
L 4281 0
L 4281 4097
L 3078 897
L 2444 897
L 1241 4097
L 1241 0
L 628 0
L 628 4666
z
" id="DejaVuSans-4d" transform="scale(0.015625)"/>
       <path d="M 628 4666
L 1259 4666
L 1259 0
L 628 0
L 628 4666
z
" id="DejaVuSans-49" transform="scale(0.015625)"/>
       <path d="M 2834 3397
L 2834 2853
Q 2591 2978 2328 3040
Q 2066 3103 1784 3103
Q 1356 3103 1142 2972
Q 928 2841 928 2578
Q 928 2378 1081 2264
Q 1234 2150 1697 2047
L 1894 2003
Q 2506 1872 2764 1633
Q 3022 1394 3022 966
Q 3022 478 2636 193
Q 2250 -91 1575 -91
Q 1294 -91 989 -36
Q 684 19 347 128
L 347 722
Q 666 556 975 473
Q 1284 391 1588 391
Q 1994 391 2212 530
Q 2431 669 2431 922
Q 2431 1156 2273 1281
Q 2116 1406 1581 1522
L 1381 1569
Q 847 1681 609 1914
Q 372 2147 372 2553
Q 372 3047 722 3315
Q 1072 3584 1716 3584
Q 2034 3584 2315 3537
Q 2597 3491 2834 3397
z
" id="DejaVuSans-73" transform="scale(0.015625)"/>
      </defs>
      <use xlink:href="#DejaVuSans-55"/>
      <use x="73.193359" xlink:href="#DejaVuSans-4d"/>
      <use x="159.472656" xlink:href="#DejaVuSans-49"/>
      <use x="188.964844" xlink:href="#DejaVuSans-73"/>
     </g>
    </g>
   </g>
   <g id="matplotlib.axis_2">
    <g id="text_10">
     <!-- Density -->
     <g style="fill:#262626;" transform="translate(14.798438 134.928594)rotate(-90)scale(0.1 -0.1)">
      <defs>
       <path d="M 1259 4147
L 1259 519
L 2022 519
Q 2988 519 3436 956
Q 3884 1394 3884 2338
Q 3884 3275 3436 3711
Q 2988 4147 2022 4147
L 1259 4147
z
M 628 4666
L 1925 4666
Q 3281 4666 3915 4102
Q 4550 3538 4550 2338
Q 4550 1131 3912 565
Q 3275 0 1925 0
L 628 0
L 628 4666
z
" id="DejaVuSans-44" transform="scale(0.015625)"/>
       <path d="M 3597 1894
L 3597 1613
L 953 1613
Q 991 1019 1311 708
Q 1631 397 2203 397
Q 2534 397 2845 478
Q 3156 559 3463 722
L 3463 178
Q 3153 47 2828 -22
Q 2503 -91 2169 -91
Q 1331 -91 842 396
Q 353 884 353 1716
Q 353 2575 817 3079
Q 1281 3584 2069 3584
Q 2775 3584 3186 3129
Q 3597 2675 3597 1894
z
M 3022 2063
Q 3016 2534 2758 2815
Q 2500 3097 2075 3097
Q 1594 3097 1305 2825
Q 1016 2553 972 2059
L 3022 2063
z
" id="DejaVuSans-65" transform="scale(0.015625)"/>
       <path d="M 3513 2113
L 3513 0
L 2938 0
L 2938 2094
Q 2938 2591 2744 2837
Q 2550 3084 2163 3084
Q 1697 3084 1428 2787
Q 1159 2491 1159 1978
L 1159 0
L 581 0
L 581 3500
L 1159 3500
L 1159 2956
Q 1366 3272 1645 3428
Q 1925 3584 2291 3584
Q 2894 3584 3203 3211
Q 3513 2838 3513 2113
z
" id="DejaVuSans-6e" transform="scale(0.015625)"/>
       <path d="M 603 3500
L 1178 3500
L 1178 0
L 603 0
L 603 3500
z
M 603 4863
L 1178 4863
L 1178 4134
L 603 4134
L 603 4863
z
" id="DejaVuSans-69" transform="scale(0.015625)"/>
       <path d="M 1172 4494
L 1172 3500
L 2356 3500
L 2356 3053
L 1172 3053
L 1172 1153
Q 1172 725 1289 603
Q 1406 481 1766 481
L 2356 481
L 2356 0
L 1766 0
Q 1100 0 847 248
Q 594 497 594 1153
L 594 3053
L 172 3053
L 172 3500
L 594 3500
L 594 4494
L 1172 4494
z
" id="DejaVuSans-74" transform="scale(0.015625)"/>
       <path d="M 2059 -325
Q 1816 -950 1584 -1140
Q 1353 -1331 966 -1331
L 506 -1331
L 506 -850
L 844 -850
Q 1081 -850 1212 -737
Q 1344 -625 1503 -206
L 1606 56
L 191 3500
L 800 3500
L 1894 763
L 2988 3500
L 3597 3500
L 2059 -325
z
" id="DejaVuSans-79" transform="scale(0.015625)"/>
      </defs>
      <use xlink:href="#DejaVuSans-44"/>
      <use x="77.001953" xlink:href="#DejaVuSans-65"/>
      <use x="138.525391" xlink:href="#DejaVuSans-6e"/>
      <use x="201.904297" xlink:href="#DejaVuSans-73"/>
      <use x="254.003906" xlink:href="#DejaVuSans-69"/>
      <use x="281.787109" xlink:href="#DejaVuSans-74"/>
      <use x="320.996094" xlink:href="#DejaVuSans-79"/>
     </g>
    </g>
   </g>
   <g id="patch_3">
    <path clip-path="url(#pc703684997)" d="M 40.826355 224.64
L 46.724426 224.64
L 46.724426 197.892671
L 40.826355 197.892671
z
" style="fill:#1f77b4;opacity:0.4;stroke:#ffffff;stroke-linejoin:miter;"/>
   </g>
   <g id="patch_4">
    <path clip-path="url(#pc703684997)" d="M 46.724426 224.64
L 52.622497 224.64
L 52.622497 134.153728
L 46.724426 134.153728
z
" style="fill:#1f77b4;opacity:0.4;stroke:#ffffff;stroke-linejoin:miter;"/>
   </g>
   <g id="patch_5">
    <path clip-path="url(#pc703684997)" d="M 52.622497 224.64
L 58.520567 224.64
L 58.520567 29.471381
L 52.622497 29.471381
z
" style="fill:#1f77b4;opacity:0.4;stroke:#ffffff;stroke-linejoin:miter;"/>
   </g>
   <g id="patch_6">
    <path clip-path="url(#pc703684997)" d="M 58.520567 224.64
L 64.418638 224.64
L 64.418638 48.285608
L 58.520567 48.285608
z
" style="fill:#1f77b4;opacity:0.4;stroke:#ffffff;stroke-linejoin:miter;"/>
   </g>
   <g id="patch_7">
    <path clip-path="url(#pc703684997)" d="M 64.418638 224.64
L 70.316709 224.64
L 70.316709 136.448043
L 64.418638 136.448043
z
" style="fill:#1f77b4;opacity:0.4;stroke:#ffffff;stroke-linejoin:miter;"/>
   </g>
   <g id="patch_8">
    <path clip-path="url(#pc703684997)" d="M 70.316709 224.64
L 76.21478 224.64
L 76.21478 187.407988
L 70.316709 187.407988
z
" style="fill:#1f77b4;opacity:0.4;stroke:#ffffff;stroke-linejoin:miter;"/>
   </g>
   <g id="patch_9">
    <path clip-path="url(#pc703684997)" d="M 76.21478 224.64
L 82.112851 224.64
L 82.112851 203.999598
L 76.21478 203.999598
z
" style="fill:#1f77b4;opacity:0.4;stroke:#ffffff;stroke-linejoin:miter;"/>
   </g>
   <g id="patch_10">
    <path clip-path="url(#pc703684997)" d="M 82.112851 224.64
L 88.010921 224.64
L 88.010921 211.37599
L 82.112851 211.37599
z
" style="fill:#1f77b4;opacity:0.4;stroke:#ffffff;stroke-linejoin:miter;"/>
   </g>
   <g id="patch_11">
    <path clip-path="url(#pc703684997)" d="M 88.010921 224.64
L 93.908992 224.64
L 93.908992 216.394805
L 88.010921 216.394805
z
" style="fill:#1f77b4;opacity:0.4;stroke:#ffffff;stroke-linejoin:miter;"/>
   </g>
   <g id="patch_12">
    <path clip-path="url(#pc703684997)" d="M 93.908992 224.64
L 99.807063 224.64
L 99.807063 219.616968
L 93.908992 219.616968
z
" style="fill:#1f77b4;opacity:0.4;stroke:#ffffff;stroke-linejoin:miter;"/>
   </g>
   <g id="patch_13">
    <path clip-path="url(#pc703684997)" d="M 99.807063 224.64
L 105.705134 224.64
L 105.705134 221.481099
L 99.807063 221.481099
z
" style="fill:#1f77b4;opacity:0.4;stroke:#ffffff;stroke-linejoin:miter;"/>
   </g>
   <g id="patch_14">
    <path clip-path="url(#pc703684997)" d="M 105.705134 224.64
L 111.603205 224.64
L 111.603205 221.907066
L 105.705134 221.907066
z
" style="fill:#1f77b4;opacity:0.4;stroke:#ffffff;stroke-linejoin:miter;"/>
   </g>
   <g id="patch_15">
    <path clip-path="url(#pc703684997)" d="M 111.603205 224.64
L 117.501275 224.64
L 117.501275 221.738366
L 111.603205 221.738366
z
" style="fill:#1f77b4;opacity:0.4;stroke:#ffffff;stroke-linejoin:miter;"/>
   </g>
   <g id="patch_16">
    <path clip-path="url(#pc703684997)" d="M 117.501275 224.64
L 123.399346 224.64
L 123.399346 221.190092
L 117.501275 221.190092
z
" style="fill:#1f77b4;opacity:0.4;stroke:#ffffff;stroke-linejoin:miter;"/>
   </g>
   <g id="patch_17">
    <path clip-path="url(#pc703684997)" d="M 123.399346 224.64
L 129.297417 224.64
L 129.297417 221.379879
L 123.399346 221.379879
z
" style="fill:#1f77b4;opacity:0.4;stroke:#ffffff;stroke-linejoin:miter;"/>
   </g>
   <g id="patch_18">
    <path clip-path="url(#pc703684997)" d="M 129.297417 224.64
L 135.195488 224.64
L 135.195488 221.700409
L 129.297417 221.700409
z
" style="fill:#1f77b4;opacity:0.4;stroke:#ffffff;stroke-linejoin:miter;"/>
   </g>
   <g id="patch_19">
    <path clip-path="url(#pc703684997)" d="M 135.195488 224.64
L 141.093559 224.64
L 141.093559 222.21916
L 135.195488 222.21916
z
" style="fill:#1f77b4;opacity:0.4;stroke:#ffffff;stroke-linejoin:miter;"/>
   </g>
   <g id="patch_20">
    <path clip-path="url(#pc703684997)" d="M 141.093559 224.64
L 146.991629 224.64
L 146.991629 223.104833
L 141.093559 223.104833
z
" style="fill:#1f77b4;opacity:0.4;stroke:#ffffff;stroke-linejoin:miter;"/>
   </g>
   <g id="patch_21">
    <path clip-path="url(#pc703684997)" d="M 146.991629 224.64
L 152.8897 224.64
L 152.8897 223.589845
L 146.991629 223.589845
z
" style="fill:#1f77b4;opacity:0.4;stroke:#ffffff;stroke-linejoin:miter;"/>
   </g>
   <g id="patch_22">
    <path clip-path="url(#pc703684997)" d="M 152.8897 224.64
L 158.787771 224.64
L 158.787771 223.813372
L 152.8897 223.813372
z
" style="fill:#1f77b4;opacity:0.4;stroke:#ffffff;stroke-linejoin:miter;"/>
   </g>
   <g id="patch_23">
    <path clip-path="url(#pc703684997)" d="M 158.787771 224.64
L 164.685842 224.64
L 164.685842 224.142336
L 158.787771 224.142336
z
" style="fill:#1f77b4;opacity:0.4;stroke:#ffffff;stroke-linejoin:miter;"/>
   </g>
   <g id="patch_24">
    <path clip-path="url(#pc703684997)" d="M 164.685842 224.64
L 170.583913 224.64
L 170.583913 224.197163
L 164.685842 224.197163
z
" style="fill:#1f77b4;opacity:0.4;stroke:#ffffff;stroke-linejoin:miter;"/>
   </g>
   <g id="patch_25">
    <path clip-path="url(#pc703684997)" d="M 170.583913 224.64
L 176.481983 224.64
L 176.481983 224.361646
L 170.583913 224.361646
z
" style="fill:#1f77b4;opacity:0.4;stroke:#ffffff;stroke-linejoin:miter;"/>
   </g>
   <g id="patch_26">
    <path clip-path="url(#pc703684997)" d="M 176.481983 224.64
L 182.380054 224.64
L 182.380054 224.391168
L 176.481983 224.391168
z
" style="fill:#1f77b4;opacity:0.4;stroke:#ffffff;stroke-linejoin:miter;"/>
   </g>
   <g id="patch_27">
    <path clip-path="url(#pc703684997)" d="M 182.380054 224.64
L 188.278125 224.64
L 188.278125 224.445995
L 182.380054 224.445995
z
" style="fill:#1f77b4;opacity:0.4;stroke:#ffffff;stroke-linejoin:miter;"/>
   </g>
   <g id="patch_28">
    <path clip-path="url(#pc703684997)" d="M 188.278125 224.64
L 194.176196 224.64
L 194.176196 224.433343
L 188.278125 224.433343
z
" style="fill:#1f77b4;opacity:0.4;stroke:#ffffff;stroke-linejoin:miter;"/>
   </g>
   <g id="patch_29">
    <path clip-path="url(#pc703684997)" d="M 194.176196 224.64
L 200.074267 224.64
L 200.074267 224.479735
L 194.176196 224.479735
z
" style="fill:#1f77b4;opacity:0.4;stroke:#ffffff;stroke-linejoin:miter;"/>
   </g>
   <g id="patch_30">
    <path clip-path="url(#pc703684997)" d="M 200.074267 224.64
L 205.972337 224.64
L 205.972337 224.526128
L 200.074267 224.526128
z
" style="fill:#1f77b4;opacity:0.4;stroke:#ffffff;stroke-linejoin:miter;"/>
   </g>
   <g id="patch_31">
    <path clip-path="url(#pc703684997)" d="M 205.972337 224.64
L 211.870408 224.64
L 211.870408 224.509258
L 205.972337 224.509258
z
" style="fill:#1f77b4;opacity:0.4;stroke:#ffffff;stroke-linejoin:miter;"/>
   </g>
   <g id="patch_32">
    <path clip-path="url(#pc703684997)" d="M 211.870408 224.64
L 217.768479 224.64
L 217.768479 224.52191
L 211.870408 224.52191
z
" style="fill:#1f77b4;opacity:0.4;stroke:#ffffff;stroke-linejoin:miter;"/>
   </g>
   <g id="patch_33">
    <path clip-path="url(#pc703684997)" d="M 217.768479 224.64
L 223.66655 224.64
L 223.66655 224.580955
L 217.768479 224.580955
z
" style="fill:#1f77b4;opacity:0.4;stroke:#ffffff;stroke-linejoin:miter;"/>
   </g>
   <g id="patch_34">
    <path clip-path="url(#pc703684997)" d="M 223.66655 224.64
L 229.564621 224.64
L 229.564621 224.576738
L 223.66655 224.576738
z
" style="fill:#1f77b4;opacity:0.4;stroke:#ffffff;stroke-linejoin:miter;"/>
   </g>
   <g id="patch_35">
    <path clip-path="url(#pc703684997)" d="M 229.564621 224.64
L 235.462691 224.64
L 235.462691 224.593608
L 229.564621 224.593608
z
" style="fill:#1f77b4;opacity:0.4;stroke:#ffffff;stroke-linejoin:miter;"/>
   </g>
   <g id="patch_36">
    <path clip-path="url(#pc703684997)" d="M 235.462691 224.64
L 241.360762 224.64
L 241.360762 224.602043
L 235.462691 224.602043
z
" style="fill:#1f77b4;opacity:0.4;stroke:#ffffff;stroke-linejoin:miter;"/>
   </g>
   <g id="patch_37">
    <path clip-path="url(#pc703684997)" d="M 241.360762 224.64
L 247.258833 224.64
L 247.258833 224.593608
L 241.360762 224.593608
z
" style="fill:#1f77b4;opacity:0.4;stroke:#ffffff;stroke-linejoin:miter;"/>
   </g>
   <g id="patch_38">
    <path clip-path="url(#pc703684997)" d="M 247.258833 224.64
L 253.156904 224.64
L 253.156904 224.597825
L 247.258833 224.597825
z
" style="fill:#1f77b4;opacity:0.4;stroke:#ffffff;stroke-linejoin:miter;"/>
   </g>
   <g id="patch_39">
    <path clip-path="url(#pc703684997)" d="M 253.156904 224.64
L 259.054975 224.64
L 259.054975 224.602043
L 253.156904 224.602043
z
" style="fill:#1f77b4;opacity:0.4;stroke:#ffffff;stroke-linejoin:miter;"/>
   </g>
   <g id="patch_40">
    <path clip-path="url(#pc703684997)" d="M 259.054975 224.64
L 264.953045 224.64
L 264.953045 224.618913
L 259.054975 224.618913
z
" style="fill:#1f77b4;opacity:0.4;stroke:#ffffff;stroke-linejoin:miter;"/>
   </g>
   <g id="patch_41">
    <path clip-path="url(#pc703684997)" d="M 264.953045 224.64
L 270.851116 224.64
L 270.851116 224.627348
L 264.953045 224.627348
z
" style="fill:#1f77b4;opacity:0.4;stroke:#ffffff;stroke-linejoin:miter;"/>
   </g>
   <g id="patch_42">
    <path clip-path="url(#pc703684997)" d="M 270.851116 224.64
L 276.749187 224.64
L 276.749187 224.635783
L 270.851116 224.635783
z
" style="fill:#1f77b4;opacity:0.4;stroke:#ffffff;stroke-linejoin:miter;"/>
   </g>
   <g id="patch_43">
    <path clip-path="url(#pc703684997)" d="M 276.749187 224.64
L 282.647258 224.64
L 282.647258 224.627348
L 276.749187 224.627348
z
" style="fill:#1f77b4;opacity:0.4;stroke:#ffffff;stroke-linejoin:miter;"/>
   </g>
   <g id="patch_44">
    <path clip-path="url(#pc703684997)" d="M 282.647258 224.64
L 288.545329 224.64
L 288.545329 224.635783
L 282.647258 224.635783
z
" style="fill:#1f77b4;opacity:0.4;stroke:#ffffff;stroke-linejoin:miter;"/>
   </g>
   <g id="patch_45">
    <path clip-path="url(#pc703684997)" d="M 288.545329 224.64
L 294.443399 224.64
L 294.443399 224.64
L 288.545329 224.64
z
" style="fill:#1f77b4;opacity:0.4;stroke:#ffffff;stroke-linejoin:miter;"/>
   </g>
   <g id="patch_46">
    <path clip-path="url(#pc703684997)" d="M 294.443399 224.64
L 300.34147 224.64
L 300.34147 224.631565
L 294.443399 224.631565
z
" style="fill:#1f77b4;opacity:0.4;stroke:#ffffff;stroke-linejoin:miter;"/>
   </g>
   <g id="patch_47">
    <path clip-path="url(#pc703684997)" d="M 300.34147 224.64
L 306.239541 224.64
L 306.239541 224.635783
L 300.34147 224.635783
z
" style="fill:#1f77b4;opacity:0.4;stroke:#ffffff;stroke-linejoin:miter;"/>
   </g>
   <g id="patch_48">
    <path clip-path="url(#pc703684997)" d="M 306.239541 224.64
L 312.137612 224.64
L 312.137612 224.64
L 306.239541 224.64
z
" style="fill:#1f77b4;opacity:0.4;stroke:#ffffff;stroke-linejoin:miter;"/>
   </g>
   <g id="patch_49">
    <path clip-path="url(#pc703684997)" d="M 312.137612 224.64
L 318.035683 224.64
L 318.035683 224.64
L 312.137612 224.64
z
" style="fill:#1f77b4;opacity:0.4;stroke:#ffffff;stroke-linejoin:miter;"/>
   </g>
   <g id="patch_50">
    <path clip-path="url(#pc703684997)" d="M 318.035683 224.64
L 323.933753 224.64
L 323.933753 224.635783
L 318.035683 224.635783
z
" style="fill:#1f77b4;opacity:0.4;stroke:#ffffff;stroke-linejoin:miter;"/>
   </g>
   <g id="patch_51">
    <path clip-path="url(#pc703684997)" d="M 323.933753 224.64
L 329.831824 224.64
L 329.831824 224.635783
L 323.933753 224.635783
z
" style="fill:#1f77b4;opacity:0.4;stroke:#ffffff;stroke-linejoin:miter;"/>
   </g>
   <g id="patch_52">
    <path clip-path="url(#pc703684997)" d="M 329.831824 224.64
L 335.729895 224.64
L 335.729895 224.631565
L 329.831824 224.631565
z
" style="fill:#1f77b4;opacity:0.4;stroke:#ffffff;stroke-linejoin:miter;"/>
   </g>
   <g id="line2d_1">
    <path clip-path="url(#pc703684997)" d="M 36.096307 224.63816
L 37.625772 224.590437
L 39.155238 224.004232
L 40.684703 220.671914
L 42.214169 211.570444
L 43.743634 197.86797
L 48.332031 153.017243
L 49.861496 131.98032
L 51.390962 103.912779
L 52.920427 72.084332
L 54.449893 43.882423
L 55.979358 24.908647
L 57.508824 17.554286
L 59.038289 21.669408
L 60.567755 35.224056
L 62.09722 56.210395
L 65.156151 105.367425
L 66.685617 128.081393
L 68.215083 147.555934
L 69.744548 163.065249
L 71.274014 175.225474
L 72.803479 185.091661
L 74.332945 192.594911
L 75.86241 197.601397
L 77.391876 200.859851
L 78.921341 203.616445
L 80.450807 206.127937
L 81.980272 208.048977
L 86.568669 212.942214
L 89.6276 215.36792
L 92.686531 217.713129
L 94.215996 218.662137
L 95.745462 219.284163
L 98.804393 220.180814
L 101.863324 221.200985
L 103.392789 221.611076
L 104.922255 221.897762
L 107.981186 221.891456
L 112.569582 221.862398
L 115.628513 221.532439
L 121.746375 221.234534
L 129.393703 221.544947
L 132.452634 221.732101
L 133.982099 221.740778
L 135.511565 221.879978
L 141.629427 222.826272
L 144.688358 223.119477
L 150.80622 223.639322
L 153.865151 223.672612
L 161.512479 224.132916
L 170.689272 224.279448
L 175.277668 224.365277
L 187.513392 224.444536
L 199.749116 224.491213
L 211.98484 224.531468
L 219.632168 224.578775
L 260.927737 224.624047
L 280.810788 224.628555
L 320.576892 224.637528
L 340.459943 224.639926
L 340.459943 224.639926
" style="fill:none;stroke:#1f77b4;stroke-linecap:round;stroke-width:1.5;"/>
   </g>
   <g id="line2d_2">
    <path clip-path="url(#pc703684997)" d="M 49.244944 224.64
L 49.244944 7.2
" style="fill:none;stroke:#006400;stroke-linecap:round;stroke-width:1.5;"/>
   </g>
   <g id="line2d_3">
    <path clip-path="url(#pc703684997)" d="M 179.317567 224.64
L 179.317567 7.2
" style="fill:none;stroke:#dc143c;stroke-linecap:round;stroke-width:1.5;"/>
   </g>
   <g id="patch_53">
    <path d="M 20.878125 224.64
L 20.878125 7.2
" style="fill:none;stroke:#262626;stroke-linecap:square;stroke-linejoin:miter;stroke-width:0.8;"/>
   </g>
   <g id="patch_54">
    <path d="M 355.678125 224.64
L 355.678125 7.2
" style="fill:none;stroke:#262626;stroke-linecap:square;stroke-linejoin:miter;stroke-width:0.8;"/>
   </g>
   <g id="patch_55">
    <path d="M 20.878125 224.64
L 355.678125 224.64
" style="fill:none;stroke:#262626;stroke-linecap:square;stroke-linejoin:miter;stroke-width:0.8;"/>
   </g>
   <g id="patch_56">
    <path d="M 20.878125 7.2
L 355.678125 7.2
" style="fill:none;stroke:#262626;stroke-linecap:square;stroke-linejoin:miter;stroke-width:0.8;"/>
   </g>
  </g>
 </g>
 <defs>
  <clipPath id="pc703684997">
   <rect height="217.44" width="334.8" x="20.878125" y="7.2"/>
  </clipPath>
 </defs>
</svg>
